# xmcd
#
# Track frame offsets: 
#        150
#        14182
#        26170
#        41222
#        55010
#        68522
#        81422
#        94832
#        108522
#        119820
#        133372
#        146875
#        166875
#        178252
#        191230
#        202230
#        216025
#        230177
#        246250
#        259550
#        273080
#        287292
#        301725
#        313907
#        326592
#
# Disc length: 4481 seconds
#
# Revision: 7
# Processed by: cddbd v1.5.2PL0 Copyright (c) Steve Scherf et al.
# Submitted via: ExactAudioCopyFreeDBPlugin 1.0
#
DISCID=8e117f19
DTITLE=Peggy Lee - Collectors Series
DYEAR=1990
DGENRE=Vocal
TTITLE0=Waiting For The Train To Come In
TTITLE1=I'm Glad I Waited For You
TTITLE2=I Don't Know Enough About You
TTITLE3=Linger In My Arms A Little Longer, Baby
TTITLE4=It's All Over Now
TTITLE5=It's A Good Day
TTITLE6=Everything's Movin Too Fast
TTITLE7=Chi-Baba, Chi-Baba (My Bambino Go To Sleep)
TTITLE8=Sugar (That Sugar Baby O' Mine)
TTITLE9=Golden Earrings
TTITLE10=I'll Dance At Your Wedding
TTITLE11=Manana (Is Soon Enough For Me)
TTITLE12=All Dressed Up With A Broken Heart
TTITLE13=Talkin' To Myself About You
TTITLE14=Why Don't You Do Right (Get Me Some Money Too)
TTITLE15='Deed I Do
TTITLE16=Don't Smoke In Bed
TTITLE17=Caramba! It's The Samba
TTITLE18=Them There Eyes
TTITLE19=Baby, Don't Be Mad At Me
TTITLE20=Bali Ha'i
TTITLE21=I'm Gonna Wash That Man Right Outta My Hair
TTITLE22=Ghost Riders In The Sky (A Cowboy Legend)
TTITLE23=The Old Master Painter
TTITLE24=Show Me The Way To Get Out Of This World
EXTD=YEAR: 1990
EXTT0=
EXTT1=
EXTT2=
EXTT3=
EXTT4=
EXTT5=
EXTT6=
EXTT7=
EXTT8=
EXTT9=
EXTT10=
EXTT11=
EXTT12=
EXTT13=
EXTT14=
EXTT15=
EXTT16=
EXTT17=
EXTT18=
EXTT19=
EXTT20=
EXTT21=
EXTT22=
EXTT23=
EXTT24=
PLAYORDER=
